<svg height="512pt" viewBox="0 -66 512.00122 512" width="512pt" xmlns="http://www.w3.org/2000/svg"><path d="m253.253906 371.894531h-54.210937c-10.230469 0-14.953125-12.71875-7.199219-19.398437 14.03125-12.082032 31.929688-18.726563 50.449219-18.726563h10.960937c5.558594 0 10.0625 4.507813 10.0625 10.066407v17.992187c0 5.558594-4.503906 10.066406-10.0625 10.066406zm0 0" fill="#d0f4ef"/><path d="m224.609375 207.632812c-6.910156 2.832032-14.992187.070313-18.652344-6.640624-3.929687-7.203126-1.277343-16.226563 5.925781-20.15625l110.796876-60.449219c7.195312-3.925781 16.226562-1.277344 20.15625 5.925781 3.929687 7.199219 1.277343 16.222656-5.925782 20.15625l-110.796875 60.449219c-.492187.269531-.996093.507812-1.503906.714843zm0 0" fill="#ff9921"/><path d="m61.800781 322.425781c-3.582031 3.480469-11.289062 2.039063-19.550781-1.75-8.359375-3.828125-17.289062-10.058593-23.109375-16.050781-11.570313-11.917969-6.449219-18.339844.761719-25.339844 7.207031-7.007812 13.777344-11.9375 25.347656-.019531.832031.859375 1.671875 1.78125 2.5 2.75 10.71875 12.5625 20.742188 33.910156 14.050781 40.410156zm0 0" fill="#e78e6f"/><path d="m61.800781 322.425781c-3.582031 3.480469-11.289062 2.039063-19.550781-1.75v-7.621093c0-10.597657 1.878906-21.128907 5.5-31.039063 10.71875 12.5625 20.742188 33.910156 14.050781 40.410156zm0 0" fill="#c87c5b"/><path d="m193.941406 201.398438v152.246093h-119.78125c-11 0-19.910156-8.910156-19.910156-19.90625v-20.683593c0-13.5 3.460938-26.449219 9.710938-37.808594 8.269531-15.050782 21.417968-27.300782 37.871093-34.347656l5.238281-2.25 22.878907-9.8125zm0 0" fill="#fff0cf"/><path d="m193.941406 201.398438v58.738281l-3.191406.800781c-3.871094 12.75-15.730469 22.050781-29.730469 22.050781-17.128906 0-31.070312-13.941406-31.070312-31.070312v-23.082031zm0 0" fill="#ead1c1"/><path d="m119.8125 262.828125c0 16.183594-13.121094 29.300781-29.300781 29.300781-11.75 0-21.875-6.90625-26.550781-16.882812 8.269531-15.050782 21.417968-27.304688 37.867187-34.351563l5.242187-2.25c7.699219 5.28125 12.742188 14.140625 12.742188 24.183594zm0 0" fill="#e78e6f"/><g fill="#fff0cf"><path d="m178.53125 371.894531c-8.507812 0-15.40625-6.898437-15.40625-15.40625v-64.355469h30.808594v64.355469c0 8.507813-6.894532 15.40625-15.402344 15.40625zm0 0"/><path d="m117.84375 298.234375v6.457031c0 13.253906-9.429688 24.300782-21.945312 26.804688-3.113282.621094-5.390626 3.292968-5.390626 6.464844 0 3.632812 2.945313 6.578124 6.578126 6.578124h25.28125c7.554687 0 13.679687 6.125 13.679687 13.675782 0 7.554687-6.125 13.675781-13.679687 13.675781h-41.664063c-14.609375 0-26.449219-11.839844-26.449219-26.449219v-22.71875zm0 0"/><path d="m219.9375 241.28125-32.804688 8.191406c-9.695312 2.421875-19.519531-3.476562-21.941406-13.171875l-11.875-47.535156 98.300782-24.550781 4.285156 17.152344c6.613281 26.476562-9.488282 53.300781-35.964844 59.914062zm0 0"/></g><path d="m262.273438 157.054688c0 7.136718-5.785157 12.925781-12.921876 12.925781-7.136718 0-12.921874-5.789063-12.921874-12.925781 0-7.136719 5.785156-12.921876 12.921874-12.921876 7.136719 0 12.921876 5.785157 12.921876 12.921876zm0 0" fill="#4c78a0"/><path d="m150.347656 175.835938h21.351563c4.636719 0 8.394531 3.757812 8.394531 8.394531v67.683593c0 10.53125-8.539062 19.070313-19.070312 19.070313-10.535157 0-19.074219-8.539063-19.074219-19.070313v-67.683593c0-4.636719 3.761719-8.394531 8.398437-8.394531zm0 0" fill="#e78e6f"/><path d="m386.402344 250.136719h-80.148438v-120.164063c0-22.132812 17.941406-40.074218 40.074219-40.074218s40.074219 17.941406 40.074219 40.074218zm0 0" fill="#ffbd47"/><path d="m386.398438 129.96875v120.167969h-16.089844v-120.167969c0-11.0625-4.492188-21.082031-11.742188-28.332031-5.4375-5.4375-12.449218-9.328125-20.289062-10.9375 2.601562-.519531 5.292968-.800781 8.050781-.800781 11.070313 0 21.078125 4.488281 28.328125 11.738281 7.261719 7.25 11.742188 17.269531 11.742188 28.332031zm0 0" fill="#ff9921"/><path d="m292.773438 65.550781c.535156 3.019531 1.335937 5.933594 2.371093 8.710938.351563.941406.734375 1.875 1.136719 2.785156 9.023438 20.25 30.953125 32.558594 53.765625 28.515625 26.859375-4.761719 44.773437-30.410156 40.011719-57.261719-.398438-2.238281-.933594-4.40625-1.613282-6.519531-.320312-1.007812-.679687-2-1.0625-2.980469-1.375-3.53125-3.164062-6.851562-5.257812-9.898437-10.644531-15.445313-29.664062-24.113282-49.328125-20.625-26.335937 4.667968-44.070313 29.402344-40.273437 55.683594.070312.523437.15625 1.050781.25 1.589843zm0 0" fill="#fecaa8"/><path d="m292.773438 65.550781c.535156 3.019531 1.335937 5.933594 2.371093 8.710938.351563.941406.734375 1.875 1.136719 2.785156 10.675781.414063 20.949219-.234375 30.628906-1.949219 34.101563-6.046875 53.398438-23.828125 61.535156-33.316406-.320312-1.007812-.683593-2-1.0625-2.980469-1.378906-3.53125-3.164062-6.851562-5.261718-9.898437-10.640625-15.445313-29.664063-24.113282-49.328125-20.625-26.332031 4.667968-44.070313 29.402344-40.269531 55.683594.070312.523437.15625 1.050781.25 1.589843zm0 0" fill="#ffb38c"/><path d="m292.523438 63.957031c65.171874 4.449219 89.601562-35.050781 89.601562-35.050781-10.644531-15.445312-29.664062-24.117188-49.332031-20.628906-26.332031 4.667968-44.070313 29.402344-40.269531 55.679687zm0 0" fill="#336686"/><path d="m353.636719 130.140625c-7.214844-3.914063-16.230469-1.238281-20.140625 5.976563l-27.460938 50.636718-49.101562 18.496094c-7.527344 2.835938-11.382813 11.191406-8.644532 18.753906.035157.09375.066407.1875.101563.28125 2.785156 7.714844 11.335937 11.660156 19.011719 8.769532l54.285156-20.449219c3.34375-1.261719 6.121094-3.683594 7.820312-6.820313l30.105469-55.503906c3.910157-7.214844 1.234375-16.230469-5.976562-20.140625zm0 0" fill="#ffbd47"/><path d="m251.460938 244.835938-15.539063 4.714843c-3.867187 1.175781-8.0625-.027343-10.722656-3.070312l-8.441407-9.660157c-4.914062-5.617187-2.386718-14.433593 4.753907-16.597656l20.582031-6.246094c8.523438-2.585937 17.527344 2.226563 20.117188 10.746094 2.585937 8.523438-2.230469 17.527344-10.75 20.113282zm0 0" fill="#fecaa8"/><path d="m457.796875 354.066406c0 9.84375-7.980469 17.824219-17.828125 17.824219h-93.863281c-19.332031 0-35.0625-15.726563-35.0625-35.0625v-56.269531c0-9.847656 7.980469-17.828125 17.824219-17.828125 9.847656 0 17.828124 7.980469 17.828124 17.828125v55.679687h93.273438c9.847656.003907 17.828125 7.984375 17.828125 17.828125zm0 0" fill="#1e6be7"/><path d="m305.335938 235.578125v7.40625h-50.71875c-19.332032 0-35.0625 15.730469-35.0625 35.0625v52.25c0 9.847656 7.980468 17.828125 17.824218 17.828125s17.824219-7.980469 17.824219-17.828125v-51.660156l115.582031-.011719c9.105469 0 16.484375-7.382812 16.484375-16.488281v-26.558594zm0 0" fill="#2081f6"/><path d="m454.144531 315.953125 45.351563 29.691406c8.5625 5.605469 5.546875 18.835938-4.597656 20.171875-18.359376 2.421875-36.972657-1.824218-52.464844-11.964844l-9.171875-6.003906c-4.648438-3.042968-5.949219-9.28125-2.90625-13.929687l9.855469-15.054688c3.042968-4.652343 9.28125-5.953125 13.933593-2.910156zm0 0" fill="#abe0da"/><path d="m202.203125 202.242188c.582031 0 1.171875-.066407 1.757813-.207032 4.027343-.964844 6.515624-5.011718 5.550781-9.039062-.964844-4.027344-5.007813-6.519532-9.039063-5.550782l-.089844.023438c-4.027343.960938-6.46875 4.996094-5.503906 9.027344.820313 3.4375 3.925782 5.746094 7.324219 5.746094zm0 0"/><path d="m29.109375 260.660156c.433594-.101562 10.757813-2.4375 18.226563 5.425782 1.476562 1.550781 3.457031 2.332031 5.441406 2.332031 1.851562 0 3.710937-.683594 5.164062-2.0625 3.003906-2.855469 3.125-7.601563.269532-10.601563-13.628907-14.347656-31.992188-9.835937-32.769532-9.636718-4.011718 1.027343-6.460937 5.125-5.429687 9.136718 1.027343 4.011719 5.089843 6.4375 9.097656 5.40625zm0 0"/><path d="m32.953125 328.234375c-10.792969-4.894531-19.761719-14.488281-19.9375-14.675781-2.800781-3.042969-7.542969-3.238282-10.589844-.4375-3.050781 2.800781-3.25 7.546875-.449219 10.597656.449219.484375 11.097657 11.96875 24.777344 18.175781 1.007813.457031 2.058594.671875 3.09375.671875 2.855469 0 5.582032-1.636718 6.835938-4.402344 1.710937-3.773437.042968-8.21875-3.730469-9.929687zm0 0"/><path d="m503.605469 339.371094-45.351563-29.691406c-8.101562-5.304688-19.011718-3.027344-24.316406 5.074218l-9.15625 13.988282h-70.585938v-42.617188h16.589844c13.226563 0 23.988282-10.761719 23.988282-23.984375v-26.5625c0-1.265625-.316407-2.457031-.871094-3.503906v-28.242188c0-4.140625-3.355469-7.5-7.5-7.5-4.144532 0-7.5 3.359375-7.5 7.5v24.246094h-65.148438v-4.46875l10.582032-3.988281c5.03125-1.894532 9.210937-5.539063 11.769531-10.261719l30.105469-55.503906c1.972656-3.640625.621093-8.191407-3.019532-10.167969-3.644531-1.976562-8.191406-.625-10.167968 3.015625l-30.105469 55.507813c-.839844 1.550781-2.214844 2.753906-3.871094 3.375l-49.238281 18.550781c-.121094-.535157-.257813-1.0625-.417969-1.589844-1.375-4.535156-4.003906-8.347656-7.386719-11.191406l46.675782-17.582031c1.6875-.636719 3.089843-1.859376 3.949218-3.445313l27.464844-50.636719c1.976562-3.640625.625-8.191406-3.019531-10.167968-3.640625-1.972657-8.191407-.625-10.167969 3.019531l-13.148438 24.246093v-26.816406c0-7.378906 2.445313-14.378906 6.9375-20.089844 6.480469 2.550782 13.480469 3.941407 20.695313 3.941407 3.285156 0 6.617187-.285157 9.960937-.878907 6.394532-1.132812 12.335938-3.3125 17.710938-6.308593 6.292969 6.113281 9.839844 14.429687 9.839844 23.332031v39.6875c0 4.140625 3.355468 7.5 7.5 7.5 4.144531 0 7.5-3.359375 7.5-7.5v-39.6875c0-12.199219-4.566406-23.644531-12.722656-32.382812 12.96875-12.71875 19.667968-31.40625 16.265624-50.605469-2.652343-14.964844-10.976562-28-23.433593-36.707031-12.460938-8.707032-27.5625-12.035157-42.527344-9.382813-27.136719 4.808594-46.382813 28.222656-46.953125 54.785156-3.960938-.289062-7.496094 2.578125-7.980469 6.566407-.5 4.113281 2.429688 7.851562 6.542969 8.351562 1.074219.128906 2.128906.230469 3.1875.339844 3.308594 13.046875 10.996094 24.023437 21.183594 31.601562-4.652344 6.5625-7.542969 14.15625-8.417969 22.203125l-34.421875 18.78125c-4.894531-5.5-12.597656-8.183593-20.222656-6.277343-10.925782 2.726562-17.59375 13.835937-14.863282 24.757812l-46.128906 11.523438c-2.90625-3.179688-7.074218-5.1875-11.710937-5.1875h-21.351563c-8.765625 0-15.894531 7.128906-15.894531 15.894531v34.511719l-35.578125 15.257812c-20.332031 8.71875-36.035156 24.644531-44.675781 44.042969-1.183594-1.429688-2.375-2.78125-3.566407-4.003907-7.101562-7.3125-13.910156-10.34375-20.839843-9.269531-6.269531.96875-10.90625 5.042969-15.117188 9.132813-5.984375 5.8125-18.433593 17.90625-.914062 35.945312 7.648437 7.875 21.085937 17.046875 32.992187 20.574219v15.019531c0 18.71875 15.230469 33.949219 33.953125 33.949219h41.664063c10.679687 0 19.515625-7.957031 20.949218-18.25h12.78125c2.160157 10.40625 11.394532 18.25 22.429688 18.25 3.902344 0 7.582031-.984375 10.800781-2.710937 2.871094 1.753906 6.214844 2.710937 9.714844 2.710937h54.207031c9.6875 0 17.5625-7.878906 17.5625-17.5625v-17.992187c0-6.078126-3.140625-11.625-8.109375-14.804688v-42.894531l40.835938-.007813v50.699219c0 23.46875 19.09375 42.5625 42.5625 42.5625h20.804687c4.144532 0 7.5-3.355469 7.5-7.5 0-4.140625-3.355468-7.5-7.5-7.5h-20.804687c-15.195313 0-27.5625-12.363281-27.5625-27.5625v-50.699219l20.652343-.003906v50.117188c0 4.140624 3.355469 7.5 7.5 7.5h75.074219c1.082031 4.277343 3.667969 7.949218 7.382813 10.382812l9.171875 6.003906c1.871093 1.222656 3.78125 2.359375 5.726562 3.425782-1.265625.542968-2.648437.839843-4.082031.839843h-38.882812c-4.140626 0-7.5 3.355469-7.5 7.5 0 4.140625 3.359374 7.5 7.5 7.5h38.882812c7.6875 0 14.824219-3.460937 19.582031-9.265625 8.148438 2.539063 16.65625 3.851563 25.238281 3.851563 3.691407 0 7.394532-.238281 11.089844-.726563 7.761719-1.023437 13.902344-6.621094 15.644532-14.253906 1.742187-7.632812-1.367188-15.339844-7.917969-19.628906zm-169.503907-323.710938c11.019532-1.957031 22.144532.5 31.316407 6.910156 2.675781 1.871094 5.085937 4.019532 7.214843 6.386719-7.707031 8.878907-29.882812 28.761719-73.109374 27.796875.070312-19.867187 14.339843-37.507812 34.578124-41.09375zm-31.617187 56.140625c42.304687 0 66.941406-18.1875 78.195313-29.523437.871093 2.351562 1.546874 4.800781 1.996093 7.324218 4.03125 22.75-11.195312 44.539063-33.945312 48.574219-20.113281 3.5625-39.476563-7.9375-46.476563-26.378906.074219 0 .152344.003906.230469.003906zm-3.730469 160.179688c-.570312 1.042969-.902344 2.234375-.917968 3.503906h-15.609376l16.527344-6.226563zm-97.320312 60.101562c0-.015625 0-.03125 0-.046875v-38.402344l16.460937-4.113281 1.65625 1.898438c.332031.378906.6875.738281 1.042969 1.085937-5.359375 7.117188-8.542969 15.96875-8.542969 25.546875v52.246094c0 .523437.023438 1.035156.054688 1.546875-3.675781 1.398438-7.238281 3.046875-10.671875 4.9375v-44.648438c0-.019531 0-.03125 0-.050781zm30.273437-49.878906c-.324219-.15625-.617187-.378906-.859375-.65625l-8.441406-9.664063c-.867188-.988281-.734375-2.046874-.582031-2.59375.15625-.542968.605469-1.511718 1.863281-1.890624l20.585938-6.246094c2.207031-.667969 4.539062-.4375 6.570312.644531 2.03125 1.085937 3.519531 2.898437 4.1875 5.101563.929688 3.066406.054688 6.390624-2.207031 8.628906-7.75.324218-14.96875 2.734375-21.117188 6.675781zm67.046875-60.722656-33.464844 12.605469 33.464844-18.257813zm0-22.738281-35.882812 19.578124-1.234375-4.949218c4.859375-3.671875 7.878906-9.398438 8.109375-15.558594l29.007812-15.828125zm-50.71875-6.949219c.441406-.109375.882813-.160157 1.3125-.160157 2.433594 0 4.648438 1.648438 5.265625 4.109376.722657 2.898437-1.046875 5.851562-3.949219 6.574218-1.40625.347656-2.863281.132813-4.105468-.609375-1.242188-.746093-2.117188-1.933593-2.46875-3.335937-.726563-2.902344 1.046875-5.851563 3.945312-6.578125zm-98.585937 32.4375c0-.492188.402343-.894531.898437-.894531h21.351563c.492187 0 .894531.398437.894531.894531v11.105469c0 4.140624 3.355469 7.5 7.5 7.5s7.5-3.359376 7.5-7.5v-7.398438l51.957031-12.976562c2.390625 1.3125 4.972657 2.117187 7.621094 2.398437l1.457031 5.824219c1.472656 5.910156 1.644532 11.886718.542969 17.789062-1.910156 1.371094-3.582031 3.046875-4.976563 4.953125-1.425781.15625-2.855468.441407-4.277343.871094l-20.585938 6.246094c-5.796875 1.761719-10.257812 6.289062-11.925781 12.117187-1.097656 3.824219-.867188 7.804688.539062 11.386719l-20.351562 5.082031v-13.382812c0-4.144532-3.355469-7.5-7.5-7.5s-7.5 3.355468-7.5 7.5v23.667968c0 6.382813-5.191406 11.570313-11.570312 11.570313-6.382813 0-11.574219-5.1875-11.574219-11.570313zm-44.664063 63.554687 1.0625-.457031c4.136719 4.078125 6.464844 9.59375 6.464844 15.5 0 12.023437-9.777344 21.800781-21.800781 21.800781-7.199219 0-13.835938-3.523437-17.886719-9.339844 7.515625-11.96875 18.585938-21.683593 32.160156-27.503906zm-80.265625 51.613282c-7.070312-7.277344-5.597656-8.710938.605469-14.734376 1.710938-1.660156 4.894531-4.75 6.964844-5.074218 1.671875-.265625 4.507812 1.527344 7.78125 4.898437 2.921875 3.011719 5.9375 6.972657 8.636718 11.316407-1.144531 5.609374-1.753906 11.378906-1.753906 17.253906v1.421875c-7.523437-3.195313-16.417968-9.09375-22.234375-15.082031zm146.105469 57.089843v-64.355469c0-4.144531-3.359375-7.5-7.5-7.5-4.144531 0-7.5 3.355469-7.5 7.5v54.011719h-15.882812c-3.828126-5.492187-10.183594-9.101562-17.375-9.101562h-18.917969c12.988281-5.207031 21.894531-17.953125 21.894531-32.351563 0-4.140625-3.359375-7.5-7.5-7.5-4.144531 0-7.5 3.359375-7.5 7.5 0 9.425782-6.695312 17.605469-15.914062 19.449219-6.617188 1.320313-11.417969 7.132813-11.417969 13.820313 0 7.765624 6.3125 14.078124 14.078125 14.078124h25.277344c3.40625 0 6.179687 2.773438 6.179687 6.175782 0 3.40625-2.773437 6.179687-6.179687 6.179687h-41.664063c-10.449219 0-18.949219-8.503906-18.949219-18.953125v-32.382812c0-8.015625 1.34375-15.808594 3.855469-23.121094 6.683594 6.144531 15.511719 9.691406 24.902344 9.691406 20.292969 0 36.800781-16.507812 36.800781-36.800781 0-7.949219-2.496094-15.472656-7.039062-21.683594l14.175781-6.082031v16.851562c0 14.652344 11.921875 26.570313 26.574219 26.570313 11.953124 0 22.085937-7.933594 25.414062-18.8125v32.363281.046875.046875 64.355469c0 4.359375-3.550781 7.90625-7.90625 7.90625-4.359375 0-7.90625-3.542969-7.90625-7.902344zm82.628906 7.90625h-53.226562c.910156-2.46875 1.40625-5.128906 1.40625-7.90625v-2c4.945312-3.574219 10.304687-6.457031 15.992187-8.621093 4.636719 5.933593 11.855469 9.757812 19.953125 9.757812 7.261719 0 13.816406-3.078125 18.4375-7.992188v14.195313c0 1.414063-1.148437 2.566406-2.5625 2.566406zm1.949219-93.257812c-4.140625 0-7.496094 3.359375-7.496094 7.5v51.660156c0 5.695313-4.632812 10.328125-10.328125 10.328125-5.695312 0-10.324218-4.632812-10.324218-10.328125v-52.25c0-15.195313 12.363281-27.5625 27.5625-27.5625h50.71875c4.109374 0 7.449218-3.308594 7.496093-7.40625h66.9375v19.0625c0 4.953125-4.03125 8.984375-8.984375 8.984375zm241.695313 84.527343c-.164063.722657-.785157 2.429688-2.980469 2.71875-16.570313 2.183594-33.394531-1.648437-47.375-10.804687l-9.171875-6.003906c-.773438-.507813-1.027344-1.234375-1.105469-1.621094-.082031-.390625-.140625-1.15625.363281-1.929687l9.855469-15.054688c.492187-.75 1.3125-1.160156 2.148437-1.160156.484376 0 .972657.136718 1.402344.417968l45.351563 29.695313c1.859375 1.214844 1.675781 3.023437 1.511719 3.742187zm0 0"/><path d="m154.476562 139.773438 6.210938 4.808593c1.351562 1.046875 2.972656 1.570313 4.59375 1.570313 1.601562 0 3.203125-.511719 4.546875-1.535156l6.65625-5.078126c3.296875-2.511718 3.929687-7.21875 1.417969-10.511718-2.511719-3.292969-7.21875-3.925782-10.511719-1.414063l-2.074219 1.582031-1.65625-1.28125c-3.273437-2.535156-7.984375-1.9375-10.519531 1.339844-2.535156 3.273438-1.9375 7.984375 1.335937 10.519532zm0 0"/><path d="m191.191406 87.003906 6.210938 4.808594c1.351562 1.046875 2.972656 1.570312 4.59375 1.570312 1.601562 0 3.203125-.511718 4.546875-1.535156l6.65625-5.078125c3.296875-2.511719 3.929687-7.21875 1.417969-10.511719-2.511719-3.292968-7.21875-3.925781-10.511719-1.414062l-2.074219 1.582031-1.65625-1.28125c-3.273438-2.539062-7.984375-1.9375-10.519531 1.335938-2.535157 3.277343-1.9375 7.984375 1.335937 10.523437zm0 0"/><path d="m125.992188 122.230469 6.210937 4.808593c1.351563 1.046876 2.972656 1.570313 4.59375 1.570313 1.601563 0 3.203125-.511719 4.546875-1.539063l6.65625-5.074218c3.292969-2.511719 3.929688-7.21875 1.414062-10.511719-2.511718-3.292969-7.21875-3.929687-10.511718-1.414063l-2.074219 1.578126-1.652344-1.28125c-3.273437-2.53125-7.984375-1.933594-10.523437 1.339843-2.535156 3.277344-1.933594 7.988281 1.339844 10.523438zm0 0"/></svg>